<?xml version="1.0" encoding="utf-8"?>
<!-- Generator: Adobe Illustrator 16.2.1, SVG Export Plug-In . SVG Version: 6.00 Build 0)  -->
<!DOCTYPE svg PUBLIC "-//W3C//DTD SVG 1.1//EN" "http://www.w3.org/Graphics/SVG/1.1/DTD/svg11.dtd">
<svg version="1.1" id="Novo_Icon_Set_1" xmlns="http://www.w3.org/2000/svg" xmlns:xlink="http://www.w3.org/1999/xlink" x="0px"
	 y="0px" width="71.73px" height="71.747px" viewBox="0 0 71.73 71.747" enable-background="new 0 0 71.73 71.747"
	 xml:space="preserve">
<g>
	<linearGradient id="SVGID_1_" gradientUnits="userSpaceOnUse" x1="35.8647" y1="0.3228" x2="35.8647" y2="72.0693">
		<stop  offset="0" style="stop-color:#1A1A1A"/>
		<stop  offset="0.9231" style="stop-color:#0D0D0D"/>
		<stop  offset="0.9695" style="stop-color:#0A0A0A"/>
		<stop  offset="0.9956" style="stop-color:#020202"/>
		<stop  offset="1" style="stop-color:#000000"/>
	</linearGradient>
	<path fill="url(#SVGID_1_)" d="M69.589,0.276C69.11,0.088,68.6,0,68.093,0c-0.993,0-1.963,0.345-2.67,1.001
		c-3.698,3.434-8.735,5.327-14.172,5.327c-4.792,0-9.392-1.522-12.948-4.283c-0.69-0.536-1.564-0.806-2.437-0.806
		c-0.874,0-1.748,0.27-2.438,0.806c-3.553,2.761-8.153,4.283-12.946,4.283c-5.438,0-10.472-1.893-14.175-5.327
		C5.603,0.347,4.628,0,3.638,0C3.133,0,2.62,0.088,2.141,0.276c-1.425,0.553-2.28,1.829-2.123,3.166
		c2.264,19.211,6.561,35.774,12.426,47.9c8.159,16.865,17.242,20.404,23.421,20.404s15.261-3.539,23.42-20.404
		c5.864-12.126,10.161-28.688,12.426-47.9C71.87,2.105,71.016,0.829,69.589,0.276z M69.902,3.284
		C66.422,32.811,58.418,54.741,48.21,64.53c-0.048,0.042-0.091,0.086-0.134,0.128c-0.151,0.141-0.302,0.278-0.451,0.415
		c-0.098,0.091-0.198,0.181-0.298,0.269c-0.098,0.084-0.191,0.166-0.289,0.249c-0.146,0.126-0.294,0.252-0.441,0.373
		c-0.052,0.04-0.103,0.079-0.15,0.121c-0.191,0.152-0.381,0.302-0.575,0.447c-0.006,0.007-0.016,0.013-0.024,0.021
		c-3.184,2.399-6.532,3.63-9.981,3.63c-3.45,0-6.798-1.231-9.98-3.63c-0.01-0.008-0.02-0.015-0.031-0.021
		c-0.189-0.145-0.38-0.294-0.57-0.447c-0.048-0.042-0.099-0.082-0.149-0.12c-0.148-0.122-0.296-0.248-0.444-0.376
		c-0.098-0.081-0.191-0.162-0.285-0.245c-0.103-0.09-0.203-0.18-0.304-0.274c-0.148-0.133-0.293-0.27-0.442-0.407
		c-0.049-0.045-0.093-0.091-0.142-0.137C13.311,54.733,5.308,32.807,1.829,3.284C1.812,3.142,1.823,3.001,1.85,2.864
		c0.1-0.505,0.479-0.944,1.039-1.163C3.13,1.607,3.386,1.562,3.638,1.562c0.449,0,0.886,0.15,1.228,0.42
		C4.9,2.01,4.938,2.033,4.971,2.062C5.939,2.959,7.001,3.76,8.139,4.463C8.18,4.486,8.215,4.511,8.255,4.536
		C8.3,4.563,8.348,4.589,8.395,4.617C11.916,6.725,16.14,7.89,20.481,7.89c4.26,0,8.381-1.1,11.862-3.129
		c0.803-0.47,1.573-0.988,2.302-1.556c0.347-0.266,0.784-0.403,1.221-0.403l0,0l0,0c0.094,0,0.191,0.011,0.286,0.024
		c0.012,0,0.027,0,0.04,0.002c0.076,0.013,0.147,0.033,0.22,0.051c0.032,0.011,0.064,0.015,0.097,0.025
		c0.053,0.018,0.105,0.044,0.157,0.066c0.047,0.021,0.097,0.037,0.144,0.061c0.097,0.049,0.189,0.107,0.275,0.174
		c3.891,3.022,8.921,4.686,14.167,4.686c4.34,0,8.564-1.165,12.084-3.273c0.048-0.028,0.094-0.054,0.14-0.082
		c0.041-0.025,0.078-0.049,0.116-0.073c1.138-0.703,2.202-1.504,3.169-2.401c0.029-0.029,0.069-0.052,0.106-0.08
		c0.342-0.27,0.777-0.42,1.227-0.42c0.125,0,0.255,0.013,0.377,0.034c0.128,0.023,0.251,0.057,0.372,0.104
		c0.261,0.1,0.481,0.254,0.658,0.434c0.004,0.005,0.008,0.009,0.011,0.014c0.035,0.035,0.062,0.074,0.093,0.117
		c0.021,0.025,0.047,0.051,0.064,0.079c0.023,0.034,0.041,0.073,0.061,0.109c0.02,0.036,0.043,0.071,0.06,0.108
		C69.89,2.787,69.931,3.033,69.902,3.284z"/>
	<linearGradient id="SVGID_2_" gradientUnits="userSpaceOnUse" x1="35.8638" y1="0.3223" x2="35.8638" y2="72.1186">
		<stop  offset="0" style="stop-color:#1A1A1A"/>
		<stop  offset="0.9231" style="stop-color:#0D0D0D"/>
		<stop  offset="0.9695" style="stop-color:#0A0A0A"/>
		<stop  offset="0.9956" style="stop-color:#020202"/>
		<stop  offset="1" style="stop-color:#000000"/>
	</linearGradient>
	<path fill="url(#SVGID_2_)" d="M68.09,3.125c-4.193,3.891-10.183,6.33-16.839,6.33c-5.918,0-11.315-1.927-15.385-5.089
		c-4.072,3.162-9.466,5.089-15.384,5.089c-6.657,0-12.648-2.439-16.844-6.33C6.1,24.014,11.048,41.707,17.495,53.417l49.556-42.608
		C67.436,8.301,67.783,5.74,68.09,3.125z"/>
	<linearGradient id="SVGID_3_" gradientUnits="userSpaceOnUse" x1="42.6553" y1="0.3223" x2="42.6553" y2="72.117">
		<stop  offset="0" style="stop-color:#1A1A1A"/>
		<stop  offset="0.9231" style="stop-color:#0D0D0D"/>
		<stop  offset="0.9695" style="stop-color:#0A0A0A"/>
		<stop  offset="0.9956" style="stop-color:#020202"/>
		<stop  offset="1" style="stop-color:#000000"/>
	</linearGradient>
	<path fill="url(#SVGID_3_)" d="M35.866,68.619c13.355,0,24.906-21.722,30.446-53.306L18.999,55.996
		C23.967,64.024,29.725,68.619,35.866,68.619z"/>
</g>
</svg>
