<?xml version="1.0" standalone="no"?>
<!DOCTYPE svg PUBLIC "-//W3C//DTD SVG 20010904//EN"
 "http://www.w3.org/TR/2001/REC-SVG-20010904/DTD/svg10.dtd">
<svg version="1.0" xmlns="http://www.w3.org/2000/svg"
 width="179.000000pt" height="181.000000pt" viewBox="0 0 179.000000 181.000000"
 preserveAspectRatio="xMidYMid meet">
<metadata>
Created by potrace 1.11, written by Peter Selinger 2001-2013
</metadata>
<g transform="translate(0.000000,181.000000) scale(0.100000,-0.100000)"
fill="#000000" stroke="none">
<path d="M0 1401 l0 -409 29 -7 c16 -3 53 -24 82 -46 29 -21 59 -39 66 -39 7
0 13 -4 13 -9 0 -4 29 -26 65 -47 197 -115 470 -376 608 -583 22 -33 38 -49
40 -40 3 8 14 66 26 129 34 178 93 375 163 545 12 28 27 66 35 85 96 234 296
524 454 660 29 25 57 50 63 56 6 6 40 32 76 58 36 26 67 50 69 52 2 2 -399 4
-892 4 l-897 0 0 -409z"/>
<path d="M1710 993 c-72 -39 -165 -115 -233 -192 -85 -96 -220 -303 -302 -465
-68 -135 -145 -308 -145 -327 0 -5 161 -9 380 -9 l380 0 0 510 c0 428 -2 510
-14 510 -7 0 -37 -12 -66 -27z"/>
<path d="M0 170 l0 -170 398 0 397 0 -40 36 c-181 160 -520 304 -716 304 l-39
0 0 -170z"/>
</g>
</svg>
