<?xml version="1.0" encoding="utf-8"?>
<!-- Generator: Adobe Illustrator 16.2.1, SVG Export Plug-In . SVG Version: 6.00 Build 0)  -->
<!DOCTYPE svg PUBLIC "-//W3C//DTD SVG 1.1//EN" "http://www.w3.org/Graphics/SVG/1.1/DTD/svg11.dtd">
<svg version="1.1" id="Novo_Icon_Set_1" xmlns="http://www.w3.org/2000/svg" xmlns:xlink="http://www.w3.org/1999/xlink" x="0px"
	 y="0px" width="1190.551px" height="841.89px" viewBox="0 0 1190.551 841.89" enable-background="new 0 0 1190.551 841.89"
	 xml:space="preserve">
<linearGradient id="SVGID_1_" gradientUnits="userSpaceOnUse" x1="171.5684" y1="16.2412" x2="171.5684" y2="88.7043">
	<stop  offset="0" style="stop-color:#1A1A1A"/>
	<stop  offset="0.9231" style="stop-color:#0D0D0D"/>
	<stop  offset="0.9695" style="stop-color:#0A0A0A"/>
	<stop  offset="0.9956" style="stop-color:#020202"/>
	<stop  offset="1" style="stop-color:#000000"/>
</linearGradient>
<path fill="url(#SVGID_1_)" d="M209.23,43.606c-0.311-0.958-1.143-1.659-2.137-1.805l-22.906-3.329l-10.243-20.754
	c-0.445-0.902-1.37-1.477-2.375-1.477c-1.004,0-1.929,0.575-2.375,1.477L158.95,38.472l-22.906,3.329
	c-0.995,0.146-1.828,0.847-2.136,1.805c-0.312,0.954-0.05,2.011,0.669,2.712l16.574,16.157l-3.913,22.814
	c-0.169,0.989,0.241,1.998,1.054,2.588c0.812,0.59,1.899,0.668,2.789,0.2l20.488-10.77l20.487,10.77
	c0.385,0.204,0.809,0.303,1.23,0.303c0.55,0,1.098-0.17,1.558-0.503c0.813-0.591,1.224-1.599,1.055-2.588l-3.915-22.816
	l16.575-16.155C209.279,45.617,209.54,44.56,209.23,43.606z"/>
</svg>
