<?xml version="1.0" encoding="utf-8"?>
<!-- Generator: Adobe Illustrator 16.2.1, SVG Export Plug-In . SVG Version: 6.00 Build 0)  -->
<!DOCTYPE svg PUBLIC "-//W3C//DTD SVG 1.1//EN" "http://www.w3.org/Graphics/SVG/1.1/DTD/svg11.dtd">
<svg version="1.1" id="Layer_1" xmlns="http://www.w3.org/2000/svg" xmlns:xlink="http://www.w3.org/1999/xlink" x="0px" y="0px"
	 width="100.016px" height="50.146px" viewBox="0 0 100.016 50.146" enable-background="new 0 0 100.016 50.146"
	 xml:space="preserve">
<g>
	<defs>
		<rect id="SVGID_1_" y="0" width="100.016" height="50.146"/>
	</defs>
	<clipPath id="SVGID_2_">
		<use xlink:href="#SVGID_1_"  overflow="visible"/>
	</clipPath>
	<path clip-path="url(#SVGID_2_)" fill="#FFFFFF" d="M20.027,35.306c-4.256,0-7.705,3.322-7.705,7.42s3.449,7.42,7.705,7.42
		c4.254,0,7.705-3.322,7.705-7.42S24.281,35.306,20.027,35.306"/>
	<path clip-path="url(#SVGID_2_)" fill="#FFFFFF" d="M79.908,35.306c-4.256,0-7.705,3.322-7.705,7.42s3.449,7.42,7.705,7.42
		c4.254,0,7.703-3.322,7.703-7.42S84.162,35.306,79.908,35.306"/>
	<path clip-path="url(#SVGID_2_)" fill="#FFFFFF" d="M98.016,0.027H36.98c-1.1,0-2.9-0.001-4-0.002L7.257,0
		C6.158,0,5.102,0.884,4.913,1.967L0.346,27.977C0.155,29.06,0,30.847,0,31.946v8.779c0,1.1,0.9,2,2,2h7.323
		c0-5.746,4.801-10.42,10.705-10.42c5.902,0,10.705,4.674,10.705,10.42h0.133h2.115h4h32.223c0-5.746,4.803-10.42,10.705-10.42
		c5.9,0,10.703,4.674,10.703,10.42h7.404c1.1,0,2-0.9,2-2V2.027C100.016,0.927,99.115,0.027,98.016,0.027 M24.808,20.209
		c0,0.549-0.442,1.083-0.983,1.184L5.908,24.762c-0.54,0.102-0.906-0.258-0.81-0.799L8.44,4.986
		c0.095-0.541,0.624-0.984,1.173-0.983l14.194,0.018c0.55,0,1,0.451,1,1.001V20.209z M47.451,20.277c0,0.55-0.451,1-1,1H29.882
		c-0.55,0-1-0.45-1-1V5.027c0-0.55,0.45-1,1-1h16.568c0.549,0,1,0.45,1,1V20.277z M71.506,20.277c0,0.55-0.449,1-1,1H52.451
		c-0.551,0-1-0.45-1-1V5.027c0-0.55,0.449-1,1-1h18.055c0.551,0,1,0.45,1,1V20.277z M95.562,20.277c0,0.55-0.449,1-1,1H76.506
		c-0.549,0-1-0.45-1-1V5.027c0-0.55,0.451-1,1-1h18.057c0.551,0,1,0.45,1,1V20.277z"/>
</g>
</svg>
