<?xml version="1.0" encoding="utf-8"?>
<!-- Generator: Adobe Illustrator 16.2.1, SVG Export Plug-In . SVG Version: 6.00 Build 0)  -->
<!DOCTYPE svg PUBLIC "-//W3C//DTD SVG 1.1//EN" "http://www.w3.org/Graphics/SVG/1.1/DTD/svg11.dtd">
<svg version="1.1" id="Layer_1" xmlns="http://www.w3.org/2000/svg" xmlns:xlink="http://www.w3.org/1999/xlink" x="0px" y="0px"
	 width="99.967px" height="49.846px" viewBox="0 0 99.967 49.846" enable-background="new 0 0 99.967 49.846" xml:space="preserve">
<g>
	<defs>
		<rect id="SVGID_1_" y="0" width="99.967" height="49.846"/>
	</defs>
	<clipPath id="SVGID_2_">
		<use xlink:href="#SVGID_1_"  overflow="visible"/>
	</clipPath>
	<path clip-path="url(#SVGID_2_)" fill="#FFFFFF" d="M79.908,29.846c-5.533,0-10.018,4.477-10.018,10s4.484,10,10.018,10
		c5.532,0,10.018-4.477,10.018-10S85.44,29.846,79.908,29.846"/>
	<path clip-path="url(#SVGID_2_)" fill="#FFFFFF" d="M20.028,29.846c-5.533,0-10.019,4.477-10.019,10s4.486,10,10.019,10
		c5.532,0,10.018-4.477,10.018-10S25.561,29.846,20.028,29.846"/>
	<path clip-path="url(#SVGID_2_)" fill="#FFFFFF" d="M98.819,19.52L86.288,1.637C85.657,0.737,84.24,0,83.141,0H45.85
		c-1.1,0-2.636,0.637-3.413,1.416L30.328,13.547c-0.778,0.779-2.293,1.604-3.369,1.835L1.956,20.739C0.879,20.969,0,22.058,0,23.158
		V33.46c0,1.1,0.879,2.192,1.953,2.427l5.364,1.176c1.281-5.834,6.49-10.216,12.711-10.216c7.178,0,13.017,5.831,13.017,12.998
		H66.89c0-7.167,5.84-12.998,13.019-12.998c6.424,0,11.763,4.675,12.815,10.794l5.328-1.604c1.054-0.317,1.915-1.477,1.915-2.576
		V23.158C99.967,22.058,99.45,20.421,98.819,19.52 M89.357,16.158H36.005c-0.549,0-0.685-0.321-0.299-0.714l9.543-9.73
		C45.634,5.321,46.399,5,46.95,5h34.589c0.55,0,1.258,0.368,1.574,0.819l6.67,9.52C90.1,15.79,89.907,16.158,89.357,16.158"/>
</g>
</svg>
