<?xml version="1.0" encoding="utf-8"?>
<!-- Generator: Adobe Illustrator 16.2.1, SVG Export Plug-In . SVG Version: 6.00 Build 0)  -->
<!DOCTYPE svg PUBLIC "-//W3C//DTD SVG 1.1//EN" "http://www.w3.org/Graphics/SVG/1.1/DTD/svg11.dtd">
<svg version="1.1" id="Layer_1" xmlns="http://www.w3.org/2000/svg" xmlns:xlink="http://www.w3.org/1999/xlink" x="0px" y="0px"
	 width="560.343px" height="94.545px" viewBox="0 0 560.343 94.545" enable-background="new 0 0 560.343 94.545"
	 xml:space="preserve">
<g>
	<defs>
		<rect id="SVGID_1_" width="560.343" height="94.545"/>
	</defs>
	<clipPath id="SVGID_2_">
		<use xlink:href="#SVGID_1_"  overflow="visible"/>
	</clipPath>
	<path clip-path="url(#SVGID_2_)" fill="#FFFFFF" d="M396.552,93.097h-56.152l0.029-0.576c0-0.141,0.156-3.467,1.455-6.835
		c0.775-2.024,1.811-3.628,3.053-4.795c1.604-1.478,3.552-2.23,5.801-2.23h41.943c8.631,0,10.625-0.569,12.945-2.535
		c1.764-1.626,2.482-3.783,2.482-7.433v-3.348c0-3.648-0.719-5.8-2.482-7.425c-2.32-1.98-4.314-2.557-12.945-2.557h-27.988
		c-5.18,0-9.131-0.473-12.457-1.507c-3.324-1.042-6.059-2.69-8.334-5.048c-2.039-2.112-3.635-4.765-4.744-7.898
		c-1.1-3.103-1.662-6.501-1.662-10.078v-3.191c0-3.555,0.577-7.058,1.662-10.138c1.102-3.126,2.742-5.844,4.744-7.869
		c2.291-2.341,5.025-3.982,8.334-5.031c3.281-1.027,7.359-1.523,12.457-1.523h52.104l-0.043,0.599c0,0.133-0.229,3.474-1.76,6.849
		c-0.908,2.017-2.084,3.629-3.494,4.781c-1.787,1.47-3.953,2.217-6.42,2.217h-36.632c-8.114,0-10.536,0.472-12.981,2.519
		c-1.752,1.655-2.478,3.857-2.478,7.596v3.191c0,3.783,0.696,5.911,2.478,7.588c2.311,1.921,4.418,2.528,12.981,2.528h28.104
		c10.139,0,16.322,1.958,20.66,6.561c4.158,4.188,6.531,10.749,6.531,17.991v3.191c0,7.05-2.432,13.714-6.531,17.843
		C412.867,91.132,406.69,93.097,396.552,93.097"/>
	<path clip-path="url(#SVGID_2_)" fill="#FFFFFF" d="M526.229,2.513h-2.646h-18.671h-0.473l-0.332,0.348
		c-0.281,0.31-28.713,30.574-35.967,37.836c-1.324,1.323-2.299,2.712-2.889,4.109c-0.533,1.256-0.77,2.541-0.695,3.819
		c0.221,3.893,3.146,6.487,3.619,6.878l37.297,37.809l0.311,0.324h0.475h19.195h2.689l-1.914-1.891l-44.531-44.147l42.677-43.193
		L526.229,2.513z"/>
	<path clip-path="url(#SVGID_2_)" fill="#FFFFFF" d="M16.48,18.177l43.389,0.007c8.095,0.014,10.086,0.584,12.236,2.394
		c1.648,1.552,2.291,3.562,2.291,7.167v40.542c0,3.598-0.643,5.615-2.283,7.173c-2.309,1.907-4.533,2.705-12.199,2.719l-43.405,0.03
		L16.48,18.177z M0,2.63v1.108v88.909v1.107h1.112l62.179-0.029c5.083,0,9.213-0.569,12.626-1.729
		c3.337-1.131,6.129-2.882,8.52-5.35v-0.008c1.052-1.079,1.99-2.319,2.815-3.693c0.802-1.354,1.496-2.823,2.058-4.396
		c0.549-1.56,0.974-3.222,1.263-4.936c0.281-1.729,0.425-3.518,0.425-5.326V27.745c0-1.81-0.144-3.605-0.425-5.35
		c-0.289-1.729-0.714-3.391-1.263-4.965c-0.562-1.589-1.256-3.073-2.058-4.411c-0.825-1.382-1.77-2.608-2.823-3.658
		c-1.189-1.218-2.445-2.223-3.849-3.08c-1.434-0.858-2.975-1.551-4.707-2.09c-1.717-0.54-3.587-0.924-5.715-1.184
		c-2.065-0.251-4.326-0.369-6.912-0.369L1.112,2.63H0z"/>
	<path clip-path="url(#SVGID_2_)" fill="#FFFFFF" d="M543.835,0v1.175V6.88v1.048v84.518v1.116h1.109h14.26h1.102v-1.116V60.765
		h0.037v-1.115c0-0.43-0.016-42.972-0.016-43.209c0-8.652-6.722-15.84-15.309-16.374L543.835,0z"/>
	<path clip-path="url(#SVGID_2_)" fill="#FFFFFF" d="M461.454,0.111l-1.176,0.074c-8.592,0.525-15.316,7.706-15.316,16.366
		c0,0.096-0.045,75.215-0.045,75.976v1.108h1.117h14.268h1.107v-1.108l0.045-91.241V0.111z"/>
	<path clip-path="url(#SVGID_2_)" fill="#FFFFFF" d="M138.993,52.371h32.263c-3.033-5.623-5.926-10.965-8.526-15.806
		c-2.217-4.114-4.238-7.852-5.978-11.082l-0.007-0.007c-0.304-0.583-0.909-0.952-1.574-0.952c-0.65,0-1.256,0.369-1.574,0.959
		c-1.855,3.408-3.941,7.256-6.21,11.431C144.782,41.709,141.945,46.933,138.993,52.371 M203.47,94.545h-0.007
		c-5.826,0-11.175-3.185-13.95-8.32c-0.037-0.072-3.838-7.114-10.44-19.351h-47.956c-5.877,10.84-10.462,19.278-10.499,19.351
		c-2.778,5.136-8.127,8.32-13.953,8.32c-2.291,0-4.507-0.488-6.591-1.456l-0.528-0.244L148.189,3.11h13.927l0.159,0.297
		l48.038,88.914l0.279,0.524l-0.539,0.244C207.973,94.057,205.757,94.545,203.47,94.545"/>
	<path clip-path="url(#SVGID_2_)" fill="#FFFFFF" d="M315.899,92.543l-0.016-91.212V0.148l-1.182,0.067
		c-8.586,0.524-15.316,7.713-15.316,16.366c0,0.243,0.021,48.705,0.021,49.192c0,0,0-0.008,0,0c0,0.968-0.783,1.787-1.744,1.787
		c-0.493,0-0.932-0.204-1.254-0.531c-0.045-0.052-54.6-63.489-55.139-64.118l-0.325-0.384h-0.514h-16.62h-1.105v1.108v68.559v20.349
		v1.115h1.105h14.259h1.105v-1.115c0,0,0.008-61.969,0.008-61.976c0-0.975,0.778-1.751,1.747-1.751c0.513,0,0.986,0.228,1.304,0.583
		c0.022,0.008,54.335,63.233,54.884,63.868l0.33,0.392h0.512h16.822h1.117V92.543z"/>
</g>
</svg>
