<?xml version="1.0" encoding="utf-8"?>
<!-- Generator: Adobe Illustrator 16.2.1, SVG Export Plug-In . SVG Version: 6.00 Build 0)  -->
<!DOCTYPE svg PUBLIC "-//W3C//DTD SVG 1.1//EN" "http://www.w3.org/Graphics/SVG/1.1/DTD/svg11.dtd">
<svg version="1.1" id="Layer_1" xmlns="http://www.w3.org/2000/svg" xmlns:xlink="http://www.w3.org/1999/xlink" x="0px" y="0px"
	 width="25.954px" height="18.137px" viewBox="0 0 25.954 18.137" enable-background="new 0 0 25.954 18.137" xml:space="preserve">
<g>
	<defs>
		<rect id="SVGID_1_" y="0" width="25.954" height="18.137"/>
	</defs>
	<clipPath id="SVGID_2_">
		<use xlink:href="#SVGID_1_"  overflow="visible"/>
	</clipPath>
	<path clip-path="url(#SVGID_2_)" fill="#4DA76A" d="M5.197,14.286c-1.104,0-1.999,0.861-1.999,1.925s0.895,1.926,1.999,1.926
		s1.999-0.862,1.999-1.926S6.301,14.286,5.197,14.286"/>
	<path clip-path="url(#SVGID_2_)" fill="#4DA76A" d="M20.736,14.286c-1.104,0-1.999,0.861-1.999,1.925s0.895,1.926,1.999,1.926
		c1.104,0,1.999-0.862,1.999-1.926S21.84,14.286,20.736,14.286"/>
	<path clip-path="url(#SVGID_2_)" fill="#4DA76A" d="M25.436,5.131H9.597c-0.285,0-0.752,0-1.038,0L1.884,5.124
		c-0.286,0-0.56,0.23-0.609,0.511L0.09,12.384C0.041,12.665,0,13.129,0,13.414v2.278c0,0.285,0.234,0.519,0.519,0.519h1.901
		c0-1.491,1.246-2.704,2.778-2.704c1.531,0,2.778,1.213,2.778,2.704H8.01h0.549h1.038h8.362c0-1.491,1.246-2.704,2.777-2.704
		s2.777,1.213,2.777,2.704h1.922c0.285,0,0.52-0.233,0.52-0.519V5.65C25.955,5.365,25.721,5.131,25.436,5.131 M6.438,10.368
		c0,0.143-0.115,0.28-0.255,0.308l-4.65,0.874c-0.14,0.026-0.234-0.066-0.21-0.208L2.19,6.418c0.024-0.14,0.162-0.256,0.304-0.255
		l3.684,0.005c0.142,0,0.259,0.117,0.259,0.259V10.368z M7.496,10.386V6.429c0-0.143,0.116-0.26,0.259-0.26h4.299
		c0.143,0,0.26,0.117,0.26,0.26v3.957c0,0.144-0.117,0.259-0.26,0.259H7.754C7.612,10.645,7.496,10.529,7.496,10.386 M18.556,10.386
		c0,0.144-0.116,0.259-0.259,0.259h-4.686c-0.143,0-0.26-0.115-0.26-0.259V6.429c0-0.143,0.117-0.26,0.26-0.26h4.686
		c0.143,0,0.259,0.117,0.259,0.26V10.386z M24.799,10.386c0,0.144-0.116,0.259-0.26,0.259h-4.686c-0.143,0-0.26-0.115-0.26-0.259
		V6.429c0-0.143,0.117-0.26,0.26-0.26h4.686c0.144,0,0.26,0.117,0.26,0.26V10.386z"/>
	<g clip-path="url(#SVGID_2_)">
		<text transform="matrix(1 0 0 1 4.8154 4.25)"><tspan x="0" y="0" fill="#4DA76A" font-family="'Gotham-Bold'" font-size="5">H</tspan><tspan x="3.26" y="0" fill="#4DA76A" font-family="'Gotham-Bold'" font-size="5">O</tspan><tspan x="6.56" y="0" fill="#4DA76A" font-family="'Gotham-Bold'" font-size="5">TEL</tspan></text>
	</g>
</g>
</svg>
