<?xml version="1.0" encoding="utf-8"?>
<!-- Generator: Adobe Illustrator 16.2.1, SVG Export Plug-In . SVG Version: 6.00 Build 0)  -->
<!DOCTYPE svg PUBLIC "-//W3C//DTD SVG 1.1//EN" "http://www.w3.org/Graphics/SVG/1.1/DTD/svg11.dtd">
<svg version="1.1" id="Layer_1" xmlns="http://www.w3.org/2000/svg" xmlns:xlink="http://www.w3.org/1999/xlink" x="0px" y="0px"
	 width="25.954px" height="22.031px" viewBox="0 0 25.954 22.031" enable-background="new 0 0 25.954 22.031" xml:space="preserve">
<g>
	<defs>
		<rect id="SVGID_1_" y="0" width="25.954" height="22.031"/>
	</defs>
	<clipPath id="SVGID_2_">
		<use xlink:href="#SVGID_1_"  overflow="visible"/>
	</clipPath>
	<path clip-path="url(#SVGID_2_)" fill="#4DA76A" d="M5.197,18.181c-1.104,0-1.999,0.861-1.999,1.925s0.895,1.926,1.999,1.926
		s1.999-0.862,1.999-1.926S6.301,18.181,5.197,18.181"/>
	<path clip-path="url(#SVGID_2_)" fill="#4DA76A" d="M20.736,18.181c-1.104,0-1.999,0.861-1.999,1.925s0.895,1.926,1.999,1.926
		c1.104,0,1.999-0.862,1.999-1.926S21.84,18.181,20.736,18.181"/>
	<path clip-path="url(#SVGID_2_)" fill="#4DA76A" d="M25.436,9.025H9.597c-0.285,0-0.753,0-1.038,0L1.884,9.019
		c-0.286,0-0.56,0.23-0.609,0.511L0.09,16.278C0.041,16.56,0,17.023,0,17.309v2.278c0,0.285,0.234,0.519,0.519,0.519h1.901
		c0-1.491,1.246-2.704,2.778-2.704c1.531,0,2.778,1.213,2.778,2.704H8.01h0.549h1.038h8.362c0-1.491,1.246-2.704,2.777-2.704
		s2.777,1.213,2.777,2.704h1.922c0.285,0,0.52-0.233,0.52-0.519V9.544C25.955,9.259,25.721,9.025,25.436,9.025 M6.438,14.263
		c0,0.143-0.115,0.28-0.255,0.308l-4.65,0.874c-0.14,0.026-0.235-0.066-0.21-0.208l0.868-4.924c0.024-0.14,0.162-0.255,0.304-0.255
		l3.684,0.005c0.142,0,0.259,0.117,0.259,0.259V14.263z M12.313,14.28c0,0.144-0.117,0.26-0.26,0.26H7.754
		c-0.143,0-0.259-0.116-0.259-0.26v-3.957c0-0.143,0.116-0.26,0.259-0.26h4.299c0.143,0,0.26,0.117,0.26,0.26V14.28z M18.556,14.28
		c0,0.144-0.116,0.26-0.259,0.26h-4.686c-0.143,0-0.26-0.116-0.26-0.26v-3.957c0-0.143,0.117-0.26,0.26-0.26h4.686
		c0.143,0,0.259,0.117,0.259,0.26V14.28z M24.799,14.28c0,0.144-0.117,0.26-0.26,0.26h-4.686c-0.143,0-0.26-0.116-0.26-0.26v-3.957
		c0-0.143,0.117-0.26,0.26-0.26h4.686c0.143,0,0.26,0.117,0.26,0.26V14.28z"/>
	<polygon clip-path="url(#SVGID_2_)" fill="#4DA76A" points="12.554,7.398 13.974,5.787 12.605,5.787 12.605,5.326 14.69,5.326 
		14.69,5.713 13.271,7.323 14.69,7.323 14.69,7.784 12.554,7.784 	"/>
	<polygon clip-path="url(#SVGID_2_)" fill="#4DA76A" points="11.354,3.236 13.572,0.72 11.435,0.72 11.435,0 14.692,0 14.692,0.604 
		12.474,3.119 14.692,3.119 14.692,3.839 11.354,3.839 	"/>
	<polygon clip-path="url(#SVGID_2_)" fill="#4DA76A" points="15.736,5.151 17.62,3.015 15.805,3.015 15.805,2.403 18.57,2.403 
		18.57,2.916 16.688,5.052 18.57,5.052 18.57,5.663 15.736,5.663 	"/>
</g>
</svg>
