<?xml version="1.0" encoding="utf-8"?>
<!-- Generator: Adobe Illustrator 16.2.1, SVG Export Plug-In . SVG Version: 6.00 Build 0)  -->
<!DOCTYPE svg PUBLIC "-//W3C//DTD SVG 1.1//EN" "http://www.w3.org/Graphics/SVG/1.1/DTD/svg11.dtd">
<svg version="1.1" xmlns="http://www.w3.org/2000/svg" xmlns:xlink="http://www.w3.org/1999/xlink" x="0px" y="0px" width="32px"
	 height="32px" viewBox="0 0 32 32" enable-background="new 0 0 32 32" xml:space="preserve">
<g id="Layer_1">
	<path d="M30.08,12.675H19.818L15.998,1.92l-3.819,10.755H1.92l8.37,6.317L7.298,30.08l8.701-6.646L24.7,30.08l-2.992-11.088
		L30.08,12.675L30.08,12.675z M15.998,20.294l-4.819,4.002l1.987-5.698l-4.562-3.681l5.634,0.16l1.758-6.464l1.76,6.464l5.635-0.16
		l-4.562,3.681l1.988,5.698L15.998,20.294z"/>
	<line display="none" x1="15.996" y1="8.613" x2="15.998" y2="20.293"/>
	<line display="none" x1="15.996" y1="8.613" x2="15.998" y2="20.293"/>
	<line display="none" x1="8.604" y1="14.917" x2="14.238" y2="15.077"/>
</g>
<g id="Layer_2">
	<rect x="14.792" y="8.167" width="1.206" height="12.127"/>
	<rect x="10.708" y="22.375" width="2.25" height="2.417"/>
	<rect x="12.583" y="12.792" width="2.208" height="7.792"/>
	<rect x="8.292" y="14.23" width="5.25" height="1.77"/>
	<rect x="11.448" y="15.417" width="1.511" height="3.333"/>
	<rect x="8.292" y="14.23" width="5.396" height="3.104"/>
	<rect x="10.5" y="20.294" width="5.498" height="2.081"/>
	<rect x="11.448" y="21.542" width="3.094" height="1.708"/>
</g>
</svg>
