<?xml version="1.0" encoding="utf-8"?>
<!-- Generator: Adobe Illustrator 17.1.0, SVG Export Plug-In . SVG Version: 6.00 Build 0)  -->
<!DOCTYPE svg PUBLIC "-//W3C//DTD SVG 1.1//EN" "http://www.w3.org/Graphics/SVG/1.1/DTD/svg11.dtd">
<svg version="1.1" id="Layer_1" xmlns="http://www.w3.org/2000/svg" xmlns:xlink="http://www.w3.org/1999/xlink" x="0px" y="0px"
	 viewBox="0 0 32 32" enable-background="new 0 0 32 32" xml:space="preserve">
<g>
	<path fill="#FFFFFF" d="M15.694,3.101l3.35,9.429l0.118,0.333h0.353h8.766l-7.18,5.418l-0.269,0.203l0.088,0.326l2.609,9.667
		l-7.531-5.753l-0.304-0.232l-0.304,0.232l-7.531,5.753l2.609-9.667l0.088-0.326l-0.269-0.203l-7.18-5.418h8.766h0.353l0.118-0.333
		L15.694,3.101 M15.694,1.608l-3.821,10.755H1.614l8.371,6.317L6.993,29.768l8.701-6.646l8.701,6.646L21.403,18.68l8.371-6.317
		H19.515L15.694,1.608L15.694,1.608z"/>
</g>
<polygon fill="#FFFFFF" points="15.701,1.628 15.694,1.607 11.873,12.362 1.614,12.362 9.985,18.68 6.993,29.768 15.694,23.122 
	15.701,23.127 "/>
</svg>
